<?xml version="1.0" encoding="UTF-8" standalone="no"?>

<svg
   width="200"
   height="200"
   viewBox="0 0 50 50"
   version="1.1"
   id="svg5"
   xmlns="http://www.w3.org/2000/svg"
   xmlns:svg="http://www.w3.org/2000/svg">
  <defs
     id="defs2" />
  <g
     id="layer1">
    <g
       id="layer1-1"
       transform="matrix(0.94488189,0,0,0.94488189,4.7244104,4.2700764e-6)">
      <path
         d="M 0,0"
         id="path289" />
      <g
         id="g61"
         transform="matrix(1.0001444,0,0,1.0001444,-80.012127,-112.10569)">
        <path
           style="fill:#eb9b08;stroke-width:0.0507135"
           d="m 91.195979,164.97979 c -3.766897,-0.10147 -7.542354,-0.5595 -11.182517,-1.54154 -0.06658,-1.62752 0.0279,-5.70193 2.718973,-4.23473 5.410018,1.03635 10.985419,1.54538 16.444779,0.56713 6.450956,-1.03329 12.769136,-4.51926 16.072796,-10.31669 2.94289,-4.52335 3.63415,-10.22676 2.56501,-15.44709 -1.35292,-5.84165 -5.33355,-10.912 -10.56574,-13.79392 -2.18478,-1.29271 -4.61979,-2.10498 -7.07937,-2.69749 -1.020316,1.7657 -1.165931,3.97609 -1.860908,5.90853 0.907115,1.62287 4.068938,1.43288 5.576478,2.88166 5.10389,2.94217 8.29849,9.24275 6.87565,15.07454 -1.30287,5.72005 -6.52713,9.89067 -12.210263,10.73528 -4.125212,0.71003 -8.40714,0.28953 -12.433004,-0.78087 -0.551254,-1.98444 1.063985,-4.41668 1.352748,-6.57165 1.359839,-4.68104 2.537471,-9.43712 3.959811,-14.0818 1.513475,-0.0897 5.681561,-0.67122 4.369696,2.00925 -1.351678,4.90336 -2.736013,9.79944 -3.993106,14.72764 2.474016,0.49753 5.131148,0.25029 7.552214,-0.44799 4.268064,-1.0826 7.762224,-5.57076 6.799804,-10.03611 -0.87896,-4.38412 -5.00254,-7.37499 -9.182247,-8.29668 -3.188055,-0.79488 -7.288102,-1.15943 -9.576519,1.72022 -2.170366,2.02646 0.246227,4.34113 0.394271,6.35283 -1.003809,1.59323 -0.857889,5.13472 -2.577139,5.50253 -3.147028,-2.68818 -5.274615,-7.09266 -3.874616,-11.22146 1.561339,-4.82571 6.746434,-7.65401 11.635863,-7.60295 1.450797,-1.78147 1.380796,-4.6764 2.300889,-6.86621 0.647693,-1.81446 0.4731,-5.46741 3.362246,-4.15375 6.863562,1.00822 13.579132,4.08482 18.165492,9.40245 4.09039,4.6946 6.44669,10.91833 6.18224,17.16293 0.22675,8.02986 -4.04025,15.89359 -10.49421,20.56136 -5.7804,4.15136 -13.047756,5.65021 -20.063806,5.49211 -0.411287,-0.003 -0.825585,0.0205 -1.235515,-0.008 z"
           id="path342" />
      </g>
      <path
         style="fill:#000000;stroke-width:0.0507838"
         id="path41"
         d="" />
      <path
         style="fill:#000000;stroke-width:0.0507838"
         id="path21"
         d="" />
    </g>
  </g>
</svg>
